<?xml version="1.0" encoding="utf-8"?>
<!-- Generator: Adobe Illustrator 18.1.1, SVG Export Plug-In . SVG Version: 6.00 Build 0)  -->
<svg version="1.1" xmlns="http://www.w3.org/2000/svg" xmlns:xlink="http://www.w3.org/1999/xlink" x="0px" y="0px"
	 viewBox="0 0 612 792" enable-background="new 0 0 612 792" xml:space="preserve">
<g id="Layer_2">
	<rect y="90" fill="#FFFFFF" width="612" height="612"/>
</g>
<g id="Capa_1">
	<circle fill="#FFD93B" cx="306" cy="396" r="246"/>
	<path fill="#F4C534" d="M552,396c0,135.9-110.2,246-246,246c-77.3,0-146.4-35.7-191.5-91.6c42.2,34.1,95.9,54.5,154.4,54.5
		c135.8,0,246-110.1,246-246c0-58.5-20.4-112.2-54.5-154.4C516.3,249.6,552,318.7,552,396z"/>
	<g>
		<path fill="#3E4347" d="M416.1,480.9c0,7.4-6,13.4-13.4,13.4H209.3c-7.3,0-13.4-6-13.4-13.4s6.1-13.4,13.4-13.4h193.4
			C410.1,467.6,416.1,473.6,416.1,480.9z"/>
		<circle fill="#3E4347" cx="227.7" cy="349" r="36.7"/>
	</g>
	
		<ellipse transform="matrix(-0.8023 0.597 -0.597 -0.8023 637.7518 456.8043)" fill="#5A5F63" cx="243.2" cy="334" rx="6.2" ry="9.6"/>
	<circle fill="#3E4347" cx="384.3" cy="349" r="36.7"/>
	
		<ellipse transform="matrix(-0.8022 0.597 -0.597 -0.8022 919.9286 363.3857)" fill="#5A5F63" cx="399.8" cy="334.1" rx="6.2" ry="9.6"/>
</g>
<g id="Layer_3">
</g>
</svg>
