<?xml version="1.0" encoding="utf-8"?>
<!-- Generator: Adobe Illustrator 18.1.1, SVG Export Plug-In . SVG Version: 6.00 Build 0)  -->
<svg version="1.1" id="Layer_1" xmlns="http://www.w3.org/2000/svg" xmlns:xlink="http://www.w3.org/1999/xlink" x="0px" y="0px"
	 viewBox="0 0 1000 792" enable-background="new 0 0 1000 792" xml:space="preserve">
<g>
	<circle fill="#FFFFFF" cx="706" cy="340.4" r="63.4"/>
	<g id="Capa_1_6_">
		<circle fill="#FED93D" cx="706.3" cy="340.8" r="59.3"/>
		<path fill="#F4C533" d="M765.5,340.8c0,32.7-26.6,59.3-59.3,59.3c-18.6,0-35.3-8.6-46.1-22.1c10.2,8.2,23.1,13.1,37.2,13.1
			c32.7,0,59.3-26.5,59.3-59.3c0-14.1-4.9-27-13.1-37.2C756.9,305.6,765.5,322.2,765.5,340.8z"/>
		<g>
			<path fill="#3F4448" d="M732.8,361.3c0,1.8-1.4,3.2-3.2,3.2H683c-1.8,0-3.2-1.4-3.2-3.2s1.5-3.2,3.2-3.2h46.6
				C731.3,358.1,732.8,359.5,732.8,361.3z"/>
			<circle fill="#3F4448" cx="687.4" cy="329.5" r="8.8"/>
		</g>
		
			<ellipse transform="matrix(0.597 0.8023 -0.8023 0.597 540.0086 -423.1314)" fill="#5B6064" cx="691.1" cy="325.9" rx="2.3" ry="1.5"/>
		<circle fill="#3F4448" cx="725.1" cy="329.5" r="8.8"/>
		
			<ellipse transform="matrix(0.597 0.8022 -0.8022 0.597 555.1657 -453.3731)" fill="#5B6064" cx="728.9" cy="325.9" rx="2.3" ry="1.5"/>
	</g>
	<g id="Layer_3_6_">
	</g>
</g>
<g>
	<circle fill="#FFFFFF" cx="520.5" cy="288.1" r="63.4"/>
	<g id="Capa_1_5_">
		<circle fill="#FED93D" cx="520.7" cy="288.6" r="59.3"/>
		<path fill="#F4C533" d="M580,288.6c0,32.7-26.6,59.3-59.3,59.3c-18.6,0-35.3-8.6-46.1-22.1c10.2,8.2,23.1,13.1,37.2,13.1
			c32.7,0,59.3-26.5,59.3-59.3c0-14.1-4.9-27-13.1-37.2C571.4,253.3,580,270,580,288.6z"/>
		<g>
			<path fill="#3F4448" d="M547.3,309c0,1.8-1.4,3.2-3.2,3.2h-46.6c-1.8,0-3.2-1.4-3.2-3.2s1.5-3.2,3.2-3.2H544
				C545.8,305.8,547.3,307.3,547.3,309z"/>
			<circle fill="#3F4448" cx="501.9" cy="277.3" r="8.8"/>
		</g>
		
			<ellipse transform="matrix(0.597 0.8023 -0.8023 0.597 423.3198 -295.335)" fill="#5B6064" cx="505.6" cy="273.7" rx="2.3" ry="1.5"/>
		<circle fill="#3F4448" cx="539.6" cy="277.3" r="8.8"/>
		
			<ellipse transform="matrix(0.597 0.8022 -0.8022 0.597 438.4876 -325.5808)" fill="#5B6064" cx="543.3" cy="273.7" rx="2.3" ry="1.5"/>
	</g>
	<g id="Layer_3_5_">
	</g>
</g>
<g>
	<circle fill="#FFFFFF" cx="589.2" cy="362.8" r="72.2"/>
	<g id="Capa_1_4_">
		<circle fill="#FED93D" cx="589.5" cy="363.3" r="67.5"/>
		<path fill="#F4C533" d="M657,363.3c0,37.3-30.2,67.5-67.5,67.5c-21.2,0-40.2-9.8-52.5-25.1c11.6,9.4,26.3,15,42.4,15
			c37.3,0,67.5-30.2,67.5-67.5c0-16.1-5.6-30.8-15-42.4C647.2,323.2,657,342.1,657,363.3z"/>
		<g>
			<path fill="#3F4448" d="M619.7,386.6c0,2-1.6,3.7-3.7,3.7h-53.1c-2,0-3.7-1.6-3.7-3.7c0-2,1.7-3.7,3.7-3.7H616
				C618,383,619.7,384.6,619.7,386.6z"/>
			<circle fill="#3F4448" cx="568" cy="350.5" r="10.1"/>
		</g>
		
			<ellipse transform="matrix(0.597 0.8023 -0.8023 0.597 508.4888 -319.5035)" fill="#5B6064" cx="572.2" cy="346.3" rx="2.6" ry="1.7"/>
		<circle fill="#3F4448" cx="610.9" cy="350.5" r="10.1"/>
		
			<ellipse transform="matrix(0.597 0.8022 -0.8022 0.597 525.7594 -353.9464)" fill="#5B6064" cx="615.2" cy="346.4" rx="2.6" ry="1.7"/>
	</g>
	<g id="Layer_3_4_">
	</g>
</g>
<g>
	<circle fill="#FFFFFF" cx="417.1" cy="329.9" r="68"/>
	<g id="Capa_1_1_">
		<circle fill="#FED93D" cx="417.4" cy="330.4" r="63.6"/>
		<path fill="#F4C533" d="M481,330.4c0,35.1-28.5,63.6-63.6,63.6c-20,0-37.8-9.2-49.5-23.7c10.9,8.8,24.8,14.1,39.9,14.1
			c35.1,0,63.6-28.5,63.6-63.6c0-15.1-5.3-29-14.1-39.9C471.7,292.5,481,310.4,481,330.4z"/>
		<g>
			<path fill="#3F4448" d="M445.8,352.3c0,1.9-1.6,3.5-3.5,3.5h-50c-1.9,0-3.5-1.6-3.5-3.5c0-1.9,1.6-3.5,3.5-3.5h50
				C444.3,348.9,445.8,350.4,445.8,352.3z"/>
			<circle fill="#3F4448" cx="397.1" cy="318.2" r="9.5"/>
		</g>
		
			<ellipse transform="matrix(0.597 0.8023 -0.8023 0.597 413.8628 -195.1489)" fill="#5B6064" cx="401.2" cy="314.3" rx="2.5" ry="1.6"/>
		<circle fill="#3F4448" cx="437.6" cy="318.2" r="9.5"/>
		
			<ellipse transform="matrix(0.597 0.8022 -0.8022 0.597 430.14 -227.601)" fill="#5B6064" cx="441.6" cy="314.3" rx="2.5" ry="1.6"/>
	</g>
	<g id="Layer_3_1_">
	</g>
</g>
<g>
	<circle fill="#FFFFFF" cx="241.8" cy="323.8" r="62.1"/>
	<g id="Capa_1_2_">
		<circle fill="#FED93D" cx="242" cy="324.3" r="58"/>
		<path fill="#F4C533" d="M300,324.3c0,32.1-26,58-58,58c-18.2,0-34.5-8.4-45.2-21.6c10,8,22.6,12.9,36.4,12.9c32,0,58-26,58-58
			c0-13.8-4.8-26.5-12.9-36.4C291.6,289.8,300,306.1,300,324.3z"/>
		<g>
			<path fill="#3F4448" d="M268,344.3c0,1.7-1.4,3.2-3.2,3.2h-45.6c-1.7,0-3.2-1.4-3.2-3.2c0-1.7,1.4-3.2,3.2-3.2h45.6
				C266.6,341.2,268,342.6,268,344.3z"/>
			<circle fill="#3F4448" cx="223.5" cy="313.2" r="8.7"/>
		</g>
		
			<ellipse transform="matrix(0.597 0.8023 -0.8023 0.597 340.0029 -57.4661)" fill="#5B6064" cx="227.2" cy="309.7" rx="2.3" ry="1.5"/>
		<circle fill="#3F4448" cx="260.5" cy="313.2" r="8.7"/>
		
			<ellipse transform="matrix(0.597 0.8022 -0.8022 0.597 354.8646 -87.0904)" fill="#5B6064" cx="264.1" cy="309.7" rx="2.3" ry="1.5"/>
	</g>
	<g id="Layer_3_2_">
	</g>
</g>
<g>
	<circle fill="#FFFFFF" cx="491.2" cy="413.5" r="81.3"/>
	<g id="Capa_1_3_">
		<circle fill="#FED93D" cx="491.5" cy="414.1" r="76"/>
		<path fill="#F4C533" d="M567.5,414.1c0,42-34.1,76-76,76c-23.9,0-45.2-11-59.2-28.3c13,10.5,29.6,16.8,47.7,16.8c42,0,76-34,76-76
			c0-18.1-6.3-34.7-16.8-47.7C556.5,368.8,567.5,390.2,567.5,414.1z"/>
		<g>
			<path fill="#3F4448" d="M525.5,440.3c0,2.3-1.9,4.1-4.1,4.1h-59.8c-2.3,0-4.1-1.9-4.1-4.1s1.9-4.1,4.1-4.1h59.8
				C523.7,436.2,525.5,438,525.5,440.3z"/>
			<circle fill="#3F4448" cx="467.3" cy="399.5" r="11.3"/>
		</g>
		
			<ellipse transform="matrix(0.597 0.8023 -0.8023 0.597 507.0879 -219.6064)" fill="#5B6064" cx="472.1" cy="394.9" rx="3" ry="1.9"/>
		<circle fill="#3F4448" cx="515.7" cy="399.5" r="11.3"/>
		
			<ellipse transform="matrix(0.597 0.8022 -0.8022 0.597 526.5496 -258.4091)" fill="#5B6064" cx="520.5" cy="394.9" rx="3" ry="1.9"/>
	</g>
	<g id="Layer_3_3_">
	</g>
</g>
<g>
	<circle fill="#FFFFFF" cx="317.3" cy="400.9" r="72.3"/>
	<g id="Capa_1">
		<circle fill="#FED93D" cx="317.5" cy="401.4" r="67.6"/>
		<path fill="#F4C533" d="M385.1,401.4c0,37.3-30.3,67.6-67.6,67.6c-21.2,0-40.2-9.8-52.6-25.2c11.6,9.4,26.4,15,42.4,15
			c37.3,0,67.6-30.3,67.6-67.6c0-16.1-5.6-30.8-15-42.4C375.3,361.2,385.1,380.2,385.1,401.4z"/>
		<g>
			<path fill="#3F4448" d="M347.8,424.8c0,2-1.6,3.7-3.7,3.7H291c-2,0-3.7-1.6-3.7-3.7s1.7-3.7,3.7-3.7h53.1
				C346.1,421.1,347.8,422.8,347.8,424.8z"/>
			<circle fill="#3F4448" cx="296" cy="388.5" r="10.1"/>
		</g>
		
			<ellipse transform="matrix(0.597 0.8023 -0.8023 0.597 429.4155 -85.9858)" fill="#5B6064" cx="300.3" cy="384.4" rx="2.6" ry="1.7"/>
		<circle fill="#3F4448" cx="339.1" cy="388.5" r="10.1"/>
		
			<ellipse transform="matrix(0.597 0.8022 -0.8022 0.597 446.725 -120.4944)" fill="#5B6064" cx="343.3" cy="384.4" rx="2.6" ry="1.7"/>
	</g>
	<g id="Layer_3">
	</g>
</g>
</svg>
